<svg width="195" height="33" viewBox="0 0 195 33" fill="none" xmlns="http://www.w3.org/2000/svg">
<path d="M16.5 8.76562C16.5 13.0372 13.1079 16.5 8.92347 16.5H1.34694V8.76562C1.34694 4.49404 4.73906 1.03125 8.92347 1.03125C13.1079 1.03125 16.5 4.49404 16.5 8.76562Z" fill="white"/>
<path d="M16.5 24.2344C16.5 19.9628 19.8921 16.5 24.0765 16.5H31.6531V24.2344C31.6531 28.506 28.2609 31.9688 24.0765 31.9688C19.8921 31.9688 16.5 28.506 16.5 24.2344Z" fill="white"/>
<path d="M1.34694 24.2344C1.34694 28.506 4.73906 31.9688 8.92347 31.9688H16.5V24.2344C16.5 19.9628 13.1079 16.5 8.92347 16.5C4.73906 16.5 1.34694 19.9628 1.34694 24.2344Z" fill="white"/>
<path d="M31.6531 8.76562C31.6531 4.49404 28.2609 1.03125 24.0765 1.03125H16.5V8.76562C16.5 13.0372 19.8921 16.5 24.0765 16.5C28.2609 16.5 31.6531 13.0372 31.6531 8.76562Z" fill="white"/>
<path d="M45.814 26.494C44.1327 26.494 42.7113 26.2253 41.55 25.688C40.406 25.1507 39.5307 24.414 38.924 23.478C38.3173 22.5247 38.014 21.45 38.014 20.254H41.628C41.628 20.7567 41.7667 21.2507 42.044 21.736C42.3213 22.204 42.7633 22.5853 43.37 22.88C43.994 23.1747 44.8087 23.322 45.814 23.322C46.7153 23.322 47.4693 23.192 48.076 22.932C48.6827 22.672 49.1333 22.334 49.428 21.918C49.7227 21.4847 49.87 20.9993 49.87 20.462C49.87 19.786 49.584 19.2487 49.012 18.85C48.44 18.434 47.556 18.174 46.36 18.07L44.696 17.94C42.876 17.784 41.42 17.2207 40.328 16.25C39.2533 15.262 38.716 13.962 38.716 12.35C38.716 11.1367 39.002 10.0967 39.574 9.23C40.146 8.346 40.9433 7.67 41.966 7.202C43.006 6.71667 44.2193 6.474 45.606 6.474C47.0447 6.474 48.284 6.72533 49.324 7.228C50.364 7.73067 51.17 8.44133 51.742 9.36C52.314 10.2613 52.6 11.3273 52.6 12.558H48.986C48.986 12.038 48.856 11.5613 48.596 11.128C48.3533 10.6773 47.9807 10.322 47.478 10.062C46.9927 9.78467 46.3687 9.646 45.606 9.646C44.878 9.646 44.2713 9.76733 43.786 10.01C43.3007 10.2527 42.9367 10.582 42.694 10.998C42.4513 11.414 42.33 11.8647 42.33 12.35C42.33 12.9393 42.5467 13.4593 42.98 13.91C43.4133 14.3433 44.098 14.5947 45.034 14.664L46.698 14.82C48.05 14.924 49.2373 15.21 50.26 15.678C51.2827 16.146 52.0713 16.7787 52.626 17.576C53.198 18.3733 53.484 19.3353 53.484 20.462C53.484 21.658 53.172 22.7153 52.548 23.634C51.924 24.5353 51.0313 25.2373 49.87 25.74C48.726 26.2427 47.374 26.494 45.814 26.494ZM55.1175 31.564V28.47H57.7695C58.2722 28.47 58.6882 28.4007 59.0175 28.262C59.3642 28.1407 59.6502 27.9327 59.8755 27.638C60.1009 27.3607 60.2742 26.9707 60.3955 26.468L64.1915 11.882H67.6495L63.4635 27.248C63.1862 28.3053 62.7962 29.146 62.2935 29.77C61.7909 30.4113 61.1409 30.8707 60.3435 31.148C59.5635 31.4253 58.5929 31.564 57.4315 31.564H55.1175ZM59.5115 25.688V22.828H62.5275V25.688H59.5115ZM58.2895 25.688L53.7135 11.882H57.3535L61.6955 25.688H58.2895ZM69.0931 26V11.882H71.9531V17.94H71.6931C71.6931 16.5187 71.8751 15.3313 72.2391 14.378C72.6031 13.4073 73.1405 12.6793 73.8511 12.194C74.5791 11.6913 75.4805 11.44 76.5551 11.44H76.7111C77.8031 11.44 78.7045 11.6913 79.4151 12.194C80.1431 12.6793 80.6805 13.4073 81.0271 14.378C81.3911 15.3313 81.5731 16.5187 81.5731 17.94H80.6631C80.6631 16.5187 80.8451 15.3313 81.2091 14.378C81.5905 13.4073 82.1365 12.6793 82.8471 12.194C83.5751 11.6913 84.4765 11.44 85.5511 11.44H85.7071C86.7991 11.44 87.7091 11.6913 88.4371 12.194C89.1651 12.6793 89.7111 13.4073 90.0751 14.378C90.4565 15.3313 90.6471 16.5187 90.6471 17.94V26H87.0331V17.602C87.0331 16.718 86.8078 16.016 86.3571 15.496C85.9065 14.9587 85.2651 14.69 84.4331 14.69C83.6011 14.69 82.9338 14.9673 82.4311 15.522C81.9285 16.0593 81.6771 16.7873 81.6771 17.706V26H78.0631V17.602C78.0631 16.718 77.8378 16.016 77.3871 15.496C76.9365 14.9587 76.2951 14.69 75.4631 14.69C74.6311 14.69 73.9638 14.9673 73.4611 15.522C72.9585 16.0593 72.7071 16.7873 72.7071 17.706V26H69.0931ZM101.763 26.468C100.602 26.468 99.5792 26.2253 98.6952 25.74C97.8112 25.2373 97.1178 24.5093 96.6152 23.556C96.1125 22.6027 95.8352 21.45 95.7832 20.098H96.3292V26H93.4692V7.02H97.0832V16.51L96.1212 17.992C96.1905 16.536 96.4765 15.3227 96.9792 14.352C97.4992 13.3813 98.1925 12.6533 99.0592 12.168C99.9258 11.6827 100.905 11.44 101.997 11.44C102.968 11.44 103.852 11.622 104.649 11.986C105.446 12.35 106.131 12.8613 106.703 13.52C107.275 14.1613 107.708 14.9153 108.003 15.782C108.315 16.6487 108.471 17.5933 108.471 18.616V19.162C108.471 20.1847 108.315 21.138 108.003 22.022C107.691 22.906 107.24 23.686 106.651 24.362C106.062 25.0207 105.351 25.5407 104.519 25.922C103.704 26.286 102.786 26.468 101.763 26.468ZM100.957 23.426C101.737 23.426 102.413 23.2353 102.985 22.854C103.574 22.4553 104.034 21.918 104.363 21.242C104.692 20.566 104.857 19.786 104.857 18.902C104.857 18.0007 104.692 17.2207 104.363 16.562C104.034 15.9033 103.574 15.392 102.985 15.028C102.413 14.664 101.737 14.482 100.957 14.482C100.246 14.482 99.5878 14.638 98.9812 14.95C98.3918 15.262 97.9065 15.7213 97.5252 16.328C97.1612 16.9347 96.9792 17.6627 96.9792 18.512V19.552C96.9792 20.3667 97.1698 21.06 97.5512 21.632C97.9325 22.204 98.4265 22.646 99.0332 22.958C99.6398 23.27 100.281 23.426 100.957 23.426ZM111.285 26V11.882H114.899V26H111.285ZM109.309 14.586V11.882H114.899V14.586H109.309ZM112.611 10.192C111.9 10.192 111.372 10.01 111.025 9.646C110.696 9.26467 110.531 8.79667 110.531 8.242C110.531 7.65267 110.696 7.176 111.025 6.812C111.372 6.448 111.9 6.266 112.611 6.266C113.322 6.266 113.842 6.448 114.171 6.812C114.5 7.176 114.665 7.65267 114.665 8.242C114.665 8.79667 114.5 9.26467 114.171 9.646C113.842 10.01 113.322 10.192 112.611 10.192ZM124.81 26.494C123.562 26.494 122.461 26.2947 121.508 25.896C120.555 25.4973 119.749 24.96 119.09 24.284C118.431 23.5907 117.929 22.8107 117.582 21.944C117.253 21.0773 117.088 20.176 117.088 19.24V18.694C117.088 17.7233 117.261 16.8047 117.608 15.938C117.972 15.054 118.483 14.274 119.142 13.598C119.818 12.9047 120.633 12.3673 121.586 11.986C122.539 11.5873 123.614 11.388 124.81 11.388C126.006 11.388 127.081 11.5873 128.034 11.986C128.987 12.3673 129.793 12.9047 130.452 13.598C131.128 14.274 131.639 15.054 131.986 15.938C132.333 16.8047 132.506 17.7233 132.506 18.694V19.24C132.506 20.176 132.333 21.0773 131.986 21.944C131.657 22.8107 131.163 23.5907 130.504 24.284C129.845 24.96 129.039 25.4973 128.086 25.896C127.133 26.2947 126.041 26.494 124.81 26.494ZM124.81 23.4C125.694 23.4 126.439 23.2093 127.046 22.828C127.653 22.4293 128.112 21.9007 128.424 21.242C128.736 20.566 128.892 19.8033 128.892 18.954C128.892 18.0873 128.727 17.3247 128.398 16.666C128.086 15.99 127.618 15.4613 126.994 15.08C126.387 14.6813 125.659 14.482 124.81 14.482C123.961 14.482 123.224 14.6813 122.6 15.08C121.993 15.4613 121.525 15.99 121.196 16.666C120.867 17.3247 120.702 18.0873 120.702 18.954C120.702 19.8033 120.858 20.566 121.17 21.242C121.499 21.9007 121.967 22.4293 122.574 22.828C123.181 23.2093 123.926 23.4 124.81 23.4ZM134.916 26V7.02H140.974L148.956 22.932H149.814L149.294 23.4V7.02H152.778V26H146.694L138.712 10.088H137.828L138.348 9.62V26H134.916ZM162.455 26.494C161.242 26.494 160.176 26.286 159.257 25.87C158.356 25.454 157.602 24.8993 156.995 24.206C156.406 23.4953 155.955 22.7067 155.643 21.84C155.349 20.9733 155.201 20.0893 155.201 19.188V18.694C155.201 17.758 155.349 16.8567 155.643 15.99C155.955 15.106 156.406 14.326 156.995 13.65C157.602 12.9567 158.347 12.4107 159.231 12.012C160.115 11.596 161.138 11.388 162.299 11.388C163.825 11.388 165.099 11.726 166.121 12.402C167.161 13.0607 167.941 13.936 168.461 15.028C168.981 16.1027 169.241 17.264 169.241 18.512V19.812H156.735V17.602H166.979L165.861 18.694C165.861 17.7927 165.731 17.0213 165.471 16.38C165.211 15.7387 164.813 15.2447 164.275 14.898C163.755 14.5513 163.097 14.378 162.299 14.378C161.502 14.378 160.826 14.56 160.271 14.924C159.717 15.288 159.292 15.8167 158.997 16.51C158.72 17.186 158.581 18.0007 158.581 18.954C158.581 19.838 158.72 20.6267 158.997 21.32C159.275 21.996 159.699 22.5333 160.271 22.932C160.843 23.3133 161.571 23.504 162.455 23.504C163.339 23.504 164.059 23.3307 164.613 22.984C165.168 22.62 165.523 22.178 165.679 21.658H169.007C168.799 22.6287 168.401 23.478 167.811 24.206C167.222 24.934 166.468 25.4973 165.549 25.896C164.648 26.2947 163.617 26.494 162.455 26.494ZM177.356 26.182C176.056 26.182 174.982 26.0173 174.132 25.688C173.3 25.3413 172.676 24.7693 172.26 23.972C171.844 23.1573 171.636 22.0653 171.636 20.696L171.662 7.904H175.042L175.016 20.93C175.016 21.6233 175.198 22.1607 175.562 22.542C175.944 22.906 176.481 23.088 177.174 23.088H179.384V26.182H177.356ZM169.4 14.534V11.882H179.384V14.534H169.4ZM182.106 26V21.84H186.162V26H182.106Z" fill="white"/>
</svg>
